Patient4_TMGait_0pt8_01_right_40_EMG.mot
version=1
nRows=40
nColumns=33
inDegrees=no
endheader
time	1LAddLong	2LGlutMax	3LGlutMed	4LIliopsoas	5LSemiMemb	6LBicFemLong	7LRecFem	8LVastMed	9LVastLat	10LGasMed	11LTibAnt	12lTibPost	13LPeroneusLong	14LSol	15LExtDigLong	16LFlexDigLong	17RAddLong	18RGlutMax	19RGlutMed	20RIliopsoas	21RSemiMemb	22RBicFemLong	23RRecFem	24RVastMed	25RVastLat	26RGasMed	27RTibAnt	28RTibPost	29RPeroneusLong	30RSol	31RExtDigLong	32RFlexDigLong
46.073	0.002594	0.18539	0.089874	-0.000916	0.02182	-0.012054	0.49576	0.024567	0.024414	0.054474	-0.040894	-0.03418	0.23865	-0.009155	-0.045471	-0.010376	0.055542	-0.052795	-0.24612	-0.022736	-0.03418	-0.051575	-0.007935	-0.081024	-0.036469	-0.040588	-0.10101	-0.010681	-0.18906	0.058441	0.001068	0.030212
46.074	0.001373	0.19577	0.07843	-0.005951	0.022736	-0.027618	0.47043	-0.00061	0.052948	0.065155	0.099945	-0.025482	0.1413	-0.032501	0.02243	0.00061	0.12482	-0.059052	-0.23407	-0.068817	-0.036316	-0.082092	0.030975	-0.1181	-0.048218	-0.04425	-0.066986	-0.007019	-0.26138	0.021362	-0.003662	0.024567
46.075	-0.000458	0.22095	0.033569	-0.011902	0.029602	-0.021057	0.44174	-0.001373	0.10529	0.080566	0.16007	-0.009308	0.015259	-0.00946	0.023041	0.003815	0.099792	-0.04715	-0.10712	-0.050201	-0.050049	-0.077972	-0.032043	-0.12711	-0.05188	-0.047607	-0.000305	-0.011292	-0.10483	0.048065	0.002441	0.021515
46.076	0.002594	0.21225	0.011139	-0.014954	0.028992	-0.031738	0.33997	-0.000305	0.13855	0.058594	0.085449	0.001831	0.003204	0.021667	0.020905	0.003967	0.057831	-0.063934	-0.20371	0.01709	-0.066833	-0.078278	-0.001068	-0.14404	-0.040131	-0.053406	0.003204	-0.010376	-0.045929	0.021973	-0.002594	0.012817
46.077	0.002899	0.21301	-0.019379	0.001373	0.029907	0.009155	0.35385	-0.00351	0.15381	0.017242	0.051117	0.010071	0.074158	0.018921	0.054626	-0.005646	0.016785	-0.10132	-0.21774	0.087585	-0.17288	-0.035858	0.02533	-0.11581	-0.03952	-0.044556	0.011597	-0.013885	0.15915	-0.053864	0.001373	0.004425
46.078	0.005798	0.20828	0.036621	0.020752	0.02182	-0.020294	0.37354	-0.009918	0.09903	0.039825	0.023346	-0.025024	-0.071411	0.025177	0.076752	-0.00824	0.001068	-0.052338	-0.23804	0.22568	-0.27252	0.005035	-0.012665	-0.12909	-0.044708	-0.042114	0.003204	-0.010986	0.16617	-0.057983	-0.00351	0.005035
46.079	0.00824	0.22522	0.13504	0.010223	0.024414	-0.023651	0.41367	-0.006256	-0.032196	0.06546	-0.017242	-0.065613	-0.31601	0.037994	0.45151	0.005493	-0.029602	-0.052795	-0.22446	0.30106	-0.21454	0.028229	0.010071	-0.11749	-0.023651	-0.05127	0.001221	-0.011597	-0.14603	-0.045319	0.001221	0.01236
46.08	0.005646	0.23102	0.14648	0.002136	0.021057	-0.019073	0.42831	-0.00412	-0.16968	0.045929	0.003204	-0.066071	-0.39856	0.077057	0.041046	-0.011444	-0.065918	-0.020447	-0.35263	0.18768	-0.093231	-0.006866	0.031433	-0.1268	-0.004883	-0.042114	0.015717	-0.010681	-0.18478	-0.099182	-0.000916	0.014496
46.081	0.001068	0.20798	0.08606	0.016022	0.020142	-0.028992	0.40695	-0.003357	-0.11978	0.039978	0.019836	-0.047455	-0.14358	0.058289	0.27542	-0.00473	-0.063934	-0.048981	-0.4628	0.077667	0.17136	-0.012817	-0.024261	-0.037079	-0.000916	-0.039215	0.040131	-0.007935	-0.017853	-0.041046	-0.000305	-0.003052
46.082	0.002136	0.19653	0.017395	0.015106	0.018921	-0.036926	0.37491	0.005188	-0.067749	-0.026245	0.1294	-0.018158	0.1831	0.11612	-0.063171	-0.006866	-0.035706	-0.058289	-0.42954	-0.049744	0.19333	-0.030975	-0.055389	-0.01358	-0.002136	-0.041504	0.18417	-0.011902	0.20889	-0.018921	0.006714	-0.001831
46.083	0.000763	0.20416	-0.009003	0.014801	0.022736	-0.02121	0.37079	0.018311	-0.026245	-0.040436	0.22629	0.004272	0.13779	0.1973	-0.24124	0.003967	0.007782	-0.022583	0.002289	-0.10956	0.12116	-0.059814	-0.017242	-0.084686	0.000458	-0.038147	0.38238	-0.006561	0.34546	-0.048218	-0.001068	0.002136
46.084	-0.006104	0.27176	0.097046	0.007019	0.036163	-0.002747	0.40329	0.008087	-0.054779	0.00824	0.080719	0.008545	-0.015106	0.15533	-0.10712	-0.000763	0.042267	0.004578	0.045624	-0.11353	0.11032	-0.093384	0.023956	-0.098114	-0.004883	-0.028534	0.1973	-0.01358	-0.019073	-0.077667	-0.004425	-0.000153
46.085	0.002289	0.19394	-0.003662	0.014954	0.036011	0.020447	0.40512	-0.003967	-0.12177	0.090027	-0.013275	0.007172	-0.16892	0.074615	-0.17258	-0.001984	0.033112	0.050049	0.28229	-0.10681	-0.032043	-0.059052	-0.019989	-0.061493	0.021667	-0.024414	-0.17425	-0.008698	-0.55222	-0.10712	-0.002899	0.00473
46.086	0.005951	0.19409	-0.057831	-0.005798	0.021973	0.020905	0.38513	0.000458	-0.049286	0.099945	0.11658	0.11597	-0.1709	-0.022583	-0.25971	0.008545	0.024872	0.007019	0.12009	-0.01709	-0.45654	0.013275	-0.063782	-0.062256	0.021057	-0.019989	-0.062256	-0.01236	-0.63522	-0.082703	-0.002441	0.006409
46.087	-0.005646	0.19134	0.000763	-0.007172	0.007629	0.010071	0.38422	0	-0.016632	0.069122	0.27603	0.065613	-0.076599	-0.009918	-0.076599	0.012817	-0.018005	-0.085754	-0.1152	-0.032806	-0.43335	0.10223	-0.052185	-0.063629	0.024719	-0.018158	0.024719	-0.01358	-0.011292	-0.031738	0.00061	0.002136
46.088	-0.000458	0.19852	0.13123	0.011597	0.005188	-0.000153	0.37674	0.011292	-0.012665	0.022278	0.34927	0.058136	0.011292	-0.029297	-0.032043	0.013428	-0.065155	-0.055542	-0.1062	-0.045166	-0.1561	0.13626	-0.061493	0.020294	0.024567	-0.014954	-0.27161	0.001221	0.19058	-0.028381	0.002899	0.00473
46.089	-0.002747	0.18372	0.23972	-0.006561	-0.009003	0.012512	0.37628	-0.002594	0.014343	0.004578	0.051117	0.053711	0.15762	-0.075073	0.26596	0.004883	-0.058136	-0.016479	0.60257	0.042572	0.32974	0.10071	-0.057678	0.026703	0.028839	-0.007935	-0.16235	-0.013733	-0.10391	-0.1033	-0.003052	0
46.09	-0.010223	0.17548	0.1886	-0.003357	0.006104	0.002747	0.43091	-0.008087	-0.019226	0.00412	-0.56	0.078125	0.13275	-0.080414	0.068665	0.008392	-0.033722	-0.04776	0.59662	0.037842	0.32181	0.059814	-0.013123	-0.027466	0.006256	-0.011444	0.024414	-0.008545	0.014191	-0.071716	0.000763	-0.001373
46.091	-0.009613	0.14069	0.1178	-0.003662	0.00351	0.018158	0.45166	0.001373	-0.040741	0.024719	-0.34027	0.077209	-0.016937	-0.0177	0.18249	0.000458	-0.016785	-0.065613	0.13123	0.031891	0.12802	0.007935	-0.040741	-0.013275	0.011139	-0.010834	0.13321	-0.01236	0.035858	0.028381	-0.000763	0.001221
46.092	0.003204	0.15747	0.078278	0.009155	-0.014343	-0.033569	0.45212	-0.005646	0.004272	-0.052185	-0.15793	0.096588	0.026245	0.089111	-0.009003	-0.004578	-0.01297	-0.071869	0.035095	-0.023956	0.068054	-0.053406	-0.038147	0.00412	-0.001373	-0.00946	0.12589	-0.012665	0.26428	-0.053711	-0.004883	0.00412
46.093	0.007324	0.13184	0.054626	0.010376	-0.015411	-0.00824	0.4303	-0.002441	0.049438	-0.042877	-0.051575	0.11047	-0.035858	0.12009	-0.050354	0.001068	0	-0.12253	-0.051422	-0.096893	0.009308	-0.14328	0.013885	-0.026398	0.003204	-0.0177	0.20355	-0.007172	0.066376	-0.060272	-0.002441	-0.005493
46.094	0.001221	0.13718	0.028992	0.008392	0.05127	-0.070953	0.47821	-0.00412	-0.000916	-0.032043	0.003662	0.11231	-0.086517	0.070801	0.14465	-0.001221	0.023499	-0.098114	-0.11444	-0.087585	-0.046692	-0.16449	-0.016327	-0.027466	0.013885	-0.019379	0.14938	-0.012054	-0.10727	-0.002594	0.000458	0.00824
46.095	0.005646	0.12299	0.067749	0.00351	0.069885	-0.046997	0.41565	-0.005035	-0.077972	-0.040588	0.1297	0.1152	-0.041351	-0.074615	-0.19821	-0.011292	0.001221	-0.13321	-0.17456	-0.058594	-0.040283	-0.05127	0.010223	-0.024719	0.006256	-0.027008	0.068817	-0.006866	-0.11978	0.009613	-0.003815	0.005341
46.096	0.005493	0.15869	0.063629	-0.002441	0.034485	-0.011749	0.41748	-0.002441	-0.082397	-0.051727	0.12711	0.12268	-0.007019	-0.085754	0.30807	-0.010071	-0.040588	-0.15762	-0.037384	-0.050659	0.059662	-0.016937	-0.008392	-0.010834	0.016327	-0.033569	-0.016785	-0.00885	-0.056305	0.011444	-0.001373	0.014038
46.097	-0.000763	0.16113	0.12497	0.00351	0.005341	-0.007477	0.42633	0.000153	-0.090942	-0.019989	-0.037842	0.11993	0.11078	-0.05722	-0.19867	-0.000305	-0.000458	-0.13718	0.076141	0.057831	0.059814	-0.066376	0.05127	-0.084076	-0.001526	-0.0354	-0.056305	-0.007019	0.024567	-0.024872	-0.003052	0.015717
46.098	-0.003357	0.15945	0.048676	0.025482	0.015411	-0.002136	0.38666	0.00824	-0.1561	0.054016	-0.000305	0.11688	0.036316	-0.045624	0.51987	-0.000305	0.016174	-0.11536	0.008087	0.088959	-0.10986	-0.066071	0.068817	-0.12116	-0.013733	-0.045013	-0.013428	-0.01297	0.30792	-0.039063	0.001526	0.019989
46.099	-0.001068	0.13412	0.02182	0.015564	0.012665	-0.007935	0.36789	0.020752	-0.1265	0.1329	-0.012817	0.1149	-0.004883	-0.015411	0.21484	0.011444	-0.016785	-0.15732	-0.11017	0.056	0.10895	0.055847	0.032959	-0.048523	-0.011139	-0.040741	0.036163	-0.010529	0.43304	-0.06897	-0.000305	0.038452
46.1	0.001984	0.11749	0.038147	0.00946	0.024719	-0.011597	0.44357	0.01236	-0.026703	0.14618	-0.092316	0.11658	0.073242	0.047455	-0.26535	0.009155	-0.06134	-0.07019	-0.24643	0.073395	0.047302	0.32394	0.038452	-0.003662	0	-0.037079	0.027924	-0.009613	0.21164	-0.050201	-0.003052	0.022125
46.101	0.00473	0.0914	0.008087	0.000763	0.00946	0.003967	0.44678	0.001221	0.072021	0.12634	-0.020142	0.09964	0.089722	0.044098	-0.62271	0.002747	-0.042267	-0.09079	-0.18356	0.11643	-0.17441	0.25146	0.024872	-0.027618	-0.005951	-0.046387	0.002594	-0.011292	-0.17883	-0.006104	0.001526	-0.00473
46.102	0.003967	0.065155	0.01297	-0.023499	0.025635	0.020752	0.41107	0.002899	0.03479	0.090027	0.081024	0.10147	0.0383	0.036774	0.083618	0.008392	-0.024261	-0.11322	-0.19775	0.12909	-0.12772	0.15457	0.038757	-0.037689	-0.001221	-0.055847	0.017242	-0.00885	-0.30136	-0.045929	-0.000763	-0.015717
46.103	0.006256	0.074463	0.0383	0.022125	0.024414	0.012054	0.40375	-0.000458	0.112	0.070801	-0.061035	0.083008	0.009766	0.076447	0.53543	-0.006561	-0.013123	-0.084381	0.019684	0.048676	0.14313	0.10162	0.044861	-0.059662	-0.00061	-0.059357	0.090027	-0.010529	-0.00412	-0.047607	-0.00351	-0.044403
46.104	0.007629	0.084381	-0.004425	0.012512	0.024414	-0.011292	0.42831	-0.006714	0.075226	0.085297	-0.19577	0.058899	-0.024567	-0.048218	-0.22705	-0.010223	-0.012512	-0.052032	-0.024109	-0.063324	0.10117	0.13351	-0.012512	0.001373	0.025635	-0.057068	0.12024	-0.011902	0.10315	-0.056305	-0.001221	-0.067139
46.105	0.001678	0.1059	-0.040894	0.006714	0.026703	0.006866	0.44556	-0.002594	0.032806	0.051422	-0.31006	0.036163	-0.00412	-0.15411	-0.36316	0.007629	-0.015106	-0.055695	-0.42114	-0.069275	-0.088654	0.056152	-0.002899	0.013428	0.040588	-0.059967	0.11917	-0.009613	0.0914	-0.048218	0.000153	-0.069885
46.106	-0.00412	0.080566	-0.082092	-0.00473	0.019836	0.027618	0.46478	0.003204	0.00061	0.04837	-0.1712	0.03952	0.022583	-0.11246	-0.15106	0.007782	0.010071	-0.094299	-0.47287	-0.034637	-0.21988	0.10208	-0.014343	0.001831	0.041504	-0.056	0.15854	-0.011139	0.036011	-0.024261	0.000458	-0.08728
46.107	-0.004883	0.10895	-0.049286	-0.000916	0.020447	0.02182	0.4921	-0.00351	-0.012665	0.026093	0.065918	0.044708	-0.023651	0.040436	-0.10422	0.002747	0.007935	-0.048981	-0.42191	-0.056915	-0.18143	0.040894	-0.027313	0.000458	0.019836	-0.059204	0.031738	-0.007019	0.031128	-0.02533	-0.000763	-0.075531
46.108	-0.005493	0.15671	-0.038757	0.001678	0.022278	0.009155	0.53802	-0.012512	-0.009308	-0.001068	0.20004	0.046844	0.074463	0.048981	-0.079498	0.003967	0.00412	-0.071716	-0.39871	-0.022278	-0.090027	0.00946	-0.027161	-0.04303	0.024261	-0.064087	-0.11078	-0.009003	0.021667	-0.11246	-0.001678	-0.059052
46.109	0	0.29327	0.076752	0.018768	0.015564	-0.003357	0.56259	-0.005798	0.038757	0.021515	0.11444	0.043488	0.070801	0.014801	-0.077972	-0.00885	0.000916	-0.061951	-0.32928	0.016632	0.036926	-0.005188	-0.029602	0.021057	0.044708	-0.071411	-0.21179	-0.005341	0.011444	-0.090485	-0.003052	-0.055084
46.11	-0.001526	0.30991	0.066833	0.036316	0.018921	-0.003052	0.59387	0.000763	0.035553	0.032806	-0.081787	0.038605	0.003967	0.018005	0.09079	0.006714	-0.019531	-0.055389	-0.087128	0.025177	0.037231	0.037384	-0.049133	0.11581	0.04425	-0.082245	-0.13809	-0.006866	-0.082092	0.001831	-0.000916	-0.066833
46.111	-0.007477	0.37293	0.11688	-0.003357	0.040588	-0.001526	0.54855	0.007172	0.010376	0.016632	-0.10529	0.043488	-0.17136	-0.006866	-0.048828	-0.001373	-0.036621	-0.033875	0.022278	0.003967	-0.010071	-0.02594	-0.039215	0.084991	0.031433	-0.097351	-0.00412	-0.00885	-0.031891	-0.009766	0.000763	-0.04715
46.112	-0.018768	0.31982	0.051575	-0.020142	0.04303	0.005341	0.54627	-0.012207	0.01709	0.028687	-0.1326	0.0383	-0.15182	-0.072632	-0.26199	-0.001373	-0.005035	-0.042572	-0.1265	0.029449	-0.027771	-0.087585	-0.006561	0.068817	0.006866	-0.11124	-0.059814	-0.010986	-0.005951	-0.047913	-0.008545	-0.038757
